<?xml version="1.0" encoding="UTF-8"?>
<svg fill="none" viewBox="0 0 210 100" xmlns="http://www.w3.org/2000/svg">
<g clip-path="url(#clip0_12_404)">
<path d="m94.916 0.94054v29.046h4.5505v-29.046h-4.5505zm-48.617-0.49617c-8.8652-3.8e-5 -15.744 6.1766-15.744 15.019 0 9.2408 6.8784 15.019 15.744 15.019 8.8651-1e-4 15.758-5.7784 15.744-15.019-0.0128-8.378-6.8784-15.019-15.744-15.019zm11.201 15.019c0 6.5462-5.015 10.884-11.201 10.884-6.1863 0-11.201-4.3381-11.201-10.884 0-6.4274 5.015-10.884 11.201-10.884 6.1862 0 11.201 4.4569 11.201 10.884zm-57.5-15.464v29.987h4.6442v-19.817l24.134 20.758v-6.2171l-28.778-24.71zm65.465 15.464 16.889 14.523h6.7715l-16.914-14.523 16.914-14.523h-6.7715l-16.889 14.523zm71.845 14.523h-5.006l-3.661-6.4322h-16.581l-3.661 6.4322h-5.006l6.063-10.721h16.804l-8.379-14.899 2.469-4.3668v2.9094e-5 -2.9094e-5l16.958 29.987zm15.807 10.361h-20.74v19.762h20.74v4.6422h-25.384v-29.046h25.384v4.6422zm-16.095 7.5597h10.422l2.625 4.6422h-13.047v-4.6422zm45.11 12.202v4.6422h-22.952v-29.046h4.644v24.404h18.308zm25.243 0 2.625 4.6422h-22.952v-29.046h4.644v24.404h15.683zm-131.63 34.765-2.6252 4.6422h-20.327v-29.046h4.6443v24.404h18.308zm36.125 4.6422h-5.005l-3.662-6.4322h-16.58l-3.6612 6.4322h-5.0057l6.0626-10.721h16.804l-8.3791-14.899 2.4693-4.3668 16.957 29.987zm61.303-7.6709c-0.133 2.886-1.749 5.2847-4.434 6.5811-2.57 1.2397-6.352 1.7515-11.243 1.5191-3.952-0.1871-7.463-1.1411-9.972-2.6879v-4.765c4.566 2.5194 14.581 4.0472 18.462 2.1099 1.089-0.5432 1.914-1.6855 1.961-2.7159 0.15-3.2358-3.771-4.0401-8.911-4.7552-7.536-1.0487-11.844-2.8591-11.56-9.0095 0.131-2.8452 1.876-5.2175 4.786-6.5084 4.864-2.1548 11.117-2.2191 18.588-0.2056v4.4798c-5.807-1.9077-11.094-2.1535-15.727-0.7195-1.127 0.3487-2.476 1.3011-2.57 2.8379-0.193 3.1355 2.357 3.8781 9.152 5.0605 6.207 1.08 11.755 2.5641 11.468 8.7787zm-53.866-42.108c1.608-1.4369 2.495-3.4245 2.495-5.7421 0-5.069-3.888-8.2902-9.675-8.2902h-17.214v29.046h18.275c5.787 0 9.675-3.4059 9.675-8.4749 0-4.6598-3.556-6.5389-3.556-6.5389zm-19.75-9.3901h12.84c2.98 0 4.76 0.9347 4.76 3.648 0 2.8097-1.78 4.378-4.76 4.378h-5.52l-2.025 3.5796h8.606c2.897 0.0027 4.76 1.5137 4.76 4.3234 0 2.7133-1.78 3.8327-4.76 3.8327h-13.901v-19.762zm39.565 44.155c1.608-1.4368 2.494-3.4245 2.494-5.7421 0-5.069-3.888-8.2902-9.674-8.2902h-17.214v29.046h18.274c5.787 0 9.675-3.4058 9.675-8.4749 0-4.6598-3.555-6.5389-3.555-6.5389zm-19.75-9.3901h12.84c2.98 0 4.759 0.9347 4.759 3.648 0 2.8098-1.779 4.3781-4.759 4.3781h-5.521l-2.024 3.5796h8.606c2.897 0.0027 4.759 1.5136 4.759 4.3233 0 2.7133-1.779 3.8327-4.759 3.8327h-13.901v-19.762z" fill="#005AFF"/>
</g>
</svg>
